<svg width="16" height="16" viewBox="0 0 16 16" fill="none" xmlns="http://www.w3.org/2000/svg">
<g clip-path="url(#clip0_502_40)">
<path d="M8 16C12.4183 16 16 12.4183 16 8C16 3.58172 12.4183 0 8 0C3.58172 0 0 3.58172 0 8C0 12.4183 3.58172 16 8 16Z" fill="#F0F0F0"/>
<path d="M1.65376 3.12915C1.02535 3.94674 0.551511 4.88909 0.275604 5.91281H4.43742L1.65376 3.12915Z" fill="#0052B4"/>
<path d="M15.7245 5.91278C15.4486 4.88909 14.9747 3.94674 14.3463 3.12915L11.5627 5.91278H15.7245Z" fill="#0052B4"/>
<path d="M0.275604 10.087C0.551542 11.1107 1.02539 12.0531 1.65376 12.8706L4.43732 10.087H0.275604Z" fill="#0052B4"/>
<path d="M12.8706 1.65382C12.053 1.02542 11.1107 0.551572 10.0869 0.275635V4.43742L12.8706 1.65382Z" fill="#0052B4"/>
<path d="M3.12946 14.3463C3.94705 14.9747 4.88939 15.4486 5.91308 15.7245V11.5627L3.12946 14.3463Z" fill="#0052B4"/>
<path d="M5.91305 0.275635C4.88936 0.551572 3.94702 1.02542 3.12946 1.65379L5.91305 4.43738V0.275635Z" fill="#0052B4"/>
<path d="M10.087 15.7245C11.1107 15.4486 12.053 14.9747 12.8706 14.3463L10.087 11.5627V15.7245Z" fill="#0052B4"/>
<path d="M11.5627 10.087L14.3462 12.8707C14.9746 12.0531 15.4485 11.1107 15.7244 10.087H11.5627Z" fill="#0052B4"/>
<path d="M15.9323 6.95653H9.04353H9.0435V0.0677188C8.70191 0.02325 8.35366 0 8 0C7.64628 0 7.29809 0.02325 6.95653 0.0677188V6.95647V6.9565H0.0677188C0.02325 7.29809 0 7.64634 0 8C0 8.35372 0.02325 8.70191 0.0677188 9.04347H6.95647H6.9565V15.9323C7.29809 15.9768 7.64628 16 8 16C8.35366 16 8.70191 15.9768 9.04347 15.9323V9.04353V9.0435H15.9323C15.9768 8.70191 16 8.35372 16 8C16 7.64634 15.9768 7.29809 15.9323 6.95653Z" fill="#D80027"/>
<path d="M10.087 10.0869L13.6569 13.6568C13.821 13.4927 13.9777 13.3211 14.1271 13.1432L11.0708 10.0869H10.087V10.0869Z" fill="#D80027"/>
<path d="M5.91305 10.087H5.91298L2.34314 13.6569C2.50726 13.8211 2.67886 13.9777 2.85673 14.1271L5.91305 11.0708V10.087Z" fill="#D80027"/>
<path d="M5.91293 5.91274V5.91268L2.34305 2.34277C2.17887 2.5069 2.02224 2.67849 1.8728 2.85637L4.92915 5.91271H5.91293V5.91274Z" fill="#D80027"/>
<path d="M10.087 5.91308L13.6569 2.34314C13.4928 2.17896 13.3212 2.02233 13.1433 1.87292L10.087 4.92927V5.91308Z" fill="#D80027"/>
</g>
<defs>
<clipPath id="clip0_502_40">
<rect width="16" height="16" fill="white"/>
</clipPath>
</defs>
</svg>
